<svg width="167" height="100" viewBox="0 0 167 100" fill="none" xmlns="http://www.w3.org/2000/svg">
<path d="M46.9974 36.218C46.8098 42.11 49.7587 44.7191 49.8316 46.3762C49.7969 46.7135 49.6818 47.0375 49.496 47.3213C49.3102 47.605 49.0591 47.8402 48.7636 48.0072L45.4292 50.338C44.9977 50.6401 44.489 50.8133 43.9626 50.8375C43.8505 50.8323 41.8291 51.3135 38.6275 44.1755C36.6742 46.6102 34.189 48.5664 31.362 49.8942C28.535 51.2221 25.4413 51.8864 22.3176 51.8364C18.0766 52.0679 6.58337 49.4328 7.17471 37.2143C6.76051 27.2564 16.0473 21.0705 25.652 21.5934C27.5015 21.5986 31.2788 21.6896 37.8929 23.2244V19.1611C38.5937 12.278 34.0636 6.93748 26.2199 7.73869C25.5947 7.74129 21.1662 7.60862 14.2786 10.3686C12.3613 11.2479 12.1164 11.1022 11.4782 11.1022C9.54786 11.1022 10.3424 5.51456 10.7123 4.807C12.0695 3.14215 20.0538 0.0335609 27.8897 0.0777834C33.129 -0.384922 38.3402 1.22978 42.397 4.57288C44.046 6.41483 45.3041 8.57143 46.0952 10.9124C46.8864 13.2535 47.1942 15.7303 47 18.1934L46.9974 36.218V36.218ZM24.485 44.6437C32.933 44.5214 36.5097 39.4489 37.325 36.7175C37.9658 34.1031 37.859 32.4487 37.859 29.5898C35.34 28.9863 31.7138 28.3282 27.5536 28.323C23.6071 28.0264 16.399 29.7875 16.6804 36.7149C16.3573 41.0825 19.5771 44.883 24.485 44.6437V44.6437ZM69.0097 50.6398C66.9621 50.8271 66.0087 49.3755 65.7065 47.9422L52.7336 5.11135C52.4809 4.38818 52.3142 3.6416 52.2335 2.87941C52.1856 2.56518 52.2646 2.24483 52.4532 1.98875C52.6417 1.73267 52.9244 1.56181 53.239 1.51371C53.3015 1.50331 52.6841 1.51371 59.0351 1.51371C61.3223 1.2848 62.0673 3.08232 62.3044 4.21129L71.6095 40.8458L80.2477 4.21129C80.3857 3.37366 81.0135 1.33162 83.5821 1.54753H88.0522C88.6175 1.50071 90.9464 1.41747 91.3554 4.24511L100.061 41.3478L109.666 4.24511C109.791 3.67802 110.375 1.2874 112.969 1.54753H118.106C118.328 1.51372 119.708 1.33682 119.474 3.77947C119.362 4.26072 120.362 1.00646 105.732 47.976C105.433 49.4093 104.477 50.8609 102.429 50.6736H97.5605C94.7106 50.9727 94.3016 48.1607 94.2574 47.8772L85.6192 12.2052L77.08 47.8407C77.0383 48.1243 76.6293 50.9363 73.7768 50.6372H69.0097V50.6398ZM140.251 52.1043C138.72 52.1069 131.415 52.0263 125.309 48.9073C124.701 48.6501 124.183 48.2184 123.82 47.6668C123.458 47.1152 123.268 46.4687 123.274 45.8091V43.0127C123.274 40.8146 124.89 41.2178 125.575 41.4805C128.19 42.5366 129.868 43.3378 133.08 43.9778C142.627 45.9366 146.826 43.3795 147.855 42.8124C151.281 40.7807 151.552 36.1322 149.223 33.7207C146.493 31.4342 145.19 31.3483 135.383 28.258C134.174 27.9224 123.999 24.7176 123.975 14.6374C123.816 7.29126 130.501 0.0231547 142.085 0.0829852C145.386 0.0803839 154.18 1.15733 156.561 4.14626C156.913 4.68994 157.087 5.32986 157.061 5.97759V8.60753C157.061 9.76252 156.639 10.34 155.793 10.34C153.784 10.1163 150.221 7.43433 142.987 7.54359C141.192 7.44994 132.595 7.78031 132.981 14.0391C132.869 18.9712 139.913 20.8208 140.718 21.0341C150.215 23.8877 153.391 24.3612 157.16 28.7288C161.625 34.5167 159.218 41.2932 158.294 43.1506C153.323 52.9029 140.47 52.1095 140.251 52.1043V52.1043ZM150.723 79.3818C132.481 92.8359 105.998 99.9973 83.3867 99.9973C52.877 100.198 23.3956 88.9956 0.737743 68.5915C-0.963324 67.0593 0.537158 64.9601 2.60553 66.1281C27.7398 80.4852 56.197 88.0289 85.1529 88.0104C106.776 87.8946 128.164 83.5143 148.087 75.1209C151.156 73.8202 153.758 77.1499 150.723 79.3818V79.3818ZM158.327 70.722C155.993 67.7253 142.885 69.3225 137.016 70.0223C135.247 70.2226 134.948 68.6904 136.55 67.5588C146.988 60.2309 164.131 62.3301 166.101 64.7936C168.068 67.257 165.567 84.4102 155.795 92.6044C154.295 93.8712 152.86 93.2027 153.526 91.5378C155.725 86.01 160.662 73.7213 158.327 70.722Z" fill="#F29100"/>
</svg>
