<svg width="100" height="100" viewBox="0 0 100 100" fill="none" xmlns="http://www.w3.org/2000/svg">
<path d="M31.6376 74.9998H53.3564C64.6314 74.9998 71.4064 69.3248 71.4064 60.0248C71.4064 53.1373 66.6501 48.0498 59.5064 47.3123V46.6873C64.7064 45.8123 68.7689 40.8748 68.7689 35.3373C68.7689 27.2123 62.8001 22.1498 52.8814 22.1498H31.6376V74.9998ZM39.8439 44.531V29.1123H50.9689C57.0501 29.1123 60.6064 31.9685 60.6064 36.8435C60.6064 41.856 56.8314 44.531 49.5814 44.531H39.8439ZM39.8439 68.0435V51.0123H51.2314C58.9564 51.0123 63.0251 53.906 63.0251 59.4373C63.0251 65.0373 59.1064 68.0435 51.7064 68.0435H39.8439Z" fill="#A65FFF"/>
<path d="M0 25C0 18.3696 2.63392 12.0107 7.32233 7.32233C12.0107 2.63392 18.3696 0 25 0H75C81.6304 0 87.9893 2.63392 92.6777 7.32233C97.3661 12.0107 100 18.3696 100 25V75C100 81.6304 97.3661 87.9893 92.6777 92.6777C87.9893 97.3661 81.6304 100 75 100H25C18.3696 100 12.0107 97.3661 7.32233 92.6777C2.63392 87.9893 0 81.6304 0 75V25ZM25 6.25C20.0272 6.25 15.2581 8.22544 11.7417 11.7417C8.22544 15.2581 6.25 20.0272 6.25 25V75C6.25 79.9728 8.22544 84.742 11.7417 88.2583C15.2581 91.7746 20.0272 93.75 25 93.75H75C79.9728 93.75 84.742 91.7746 88.2583 88.2583C91.7746 84.742 93.75 79.9728 93.75 75V25C93.75 20.0272 91.7746 15.2581 88.2583 11.7417C84.742 8.22544 79.9728 6.25 75 6.25H25Z" fill="#A65FFF"/>
</svg>
