<svg width="100" height="100" viewBox="0 0 100 100" fill="none" xmlns="http://www.w3.org/2000/svg">
<path d="M98.1132 45.5467L54.4622 1.8857C53.254 0.678266 51.6159 0 49.9078 0C48.1997 0 46.5616 0.678266 45.3534 1.8857L36.2769 10.9545L47.7772 22.4549C49.1331 21.996 50.5905 21.9266 51.9838 22.2546C53.3771 22.5826 54.6505 23.2948 55.6593 24.3104C56.6681 25.3259 57.3719 26.6039 57.6906 27.9994C58.0094 29.3949 57.9304 30.8518 57.4625 32.2046L68.5475 43.2895C76.1877 40.6557 82.2039 50.2088 76.4654 55.944C70.5525 61.8569 60.7928 55.3031 63.9653 47.6128L53.6191 37.2822V64.4752C59.2665 67.2744 58.5878 73.8172 55.6463 76.752C54.8455 77.5578 53.8755 78.1755 52.8066 78.5604C51.7377 78.9452 50.5966 79.0877 49.4659 78.9774C48.3352 78.8671 47.2432 78.5069 46.2688 77.9227C45.2944 77.3385 44.4621 76.5451 43.832 75.5997C43.202 74.6544 42.7899 73.5808 42.6257 72.4566C42.4616 71.3325 42.5493 70.1859 42.8827 69.0999C43.216 68.0138 43.7866 67.0154 44.5532 66.177C45.3198 65.3385 46.2632 64.681 47.3151 64.2519V36.7967C46.3797 36.4138 45.5293 35.8494 44.813 35.1361C44.0968 34.4228 43.5289 33.5748 43.142 32.6409C42.7552 31.7071 42.5571 30.7059 42.5591 29.695C42.5612 28.6842 42.7633 27.6838 43.154 26.7515L31.8213 15.4011L1.8857 45.3434C0.678266 46.5516 0 48.1897 0 49.8978C0 51.6059 0.678266 53.244 1.8857 54.4522L45.5478 98.1143C46.756 99.3217 48.3941 100 50.1022 100C51.8103 100 53.4484 99.3217 54.6566 98.1143L98.1132 54.6566C99.3206 53.4484 99.9989 51.8103 99.9989 50.1022C99.9989 48.3941 99.3206 46.7548 98.1132 45.5467Z" fill="#E74B27"/>
</svg>
