<svg width="100" height="100" viewBox="0 0 100 100" fill="none" xmlns="http://www.w3.org/2000/svg">
<path d="M0 0H100V100H0V0ZM91.8078 76.15C91.0791 71.5879 88.1089 67.759 79.2958 64.1788C76.2288 62.7415 72.8209 61.7417 71.8078 59.429C71.4456 58.4926 71.3785 57.4677 71.6157 56.4921C72.241 53.8006 75.4279 52.9919 77.9284 53.7417C78.8318 54.0456 79.661 54.5367 80.3618 55.1829C81.0625 55.8291 81.6191 56.6159 81.995 57.4918C86.3038 54.6748 86.3038 54.6748 89.3074 52.8042C88.6242 51.628 87.8039 50.537 86.8636 49.554C84.2388 46.617 80.7431 45.1164 75.0558 45.2452L72.1189 45.6162C69.3629 46.2287 66.8699 47.694 64.9942 49.8039C60.2444 55.1836 61.6151 64.5576 67.3646 68.4332C73.0519 72.6831 81.3685 73.6162 82.4315 77.6207C83.4313 82.496 78.807 84.0633 74.2394 83.4957C70.8603 82.7459 68.9897 81.0519 66.927 77.9295L59.3046 82.3105C60.1578 84.0319 61.2992 85.5948 62.6793 86.9314C69.9295 94.2483 88.0544 93.8728 91.308 82.7481C91.9768 80.5172 92.0829 78.1553 91.6168 75.8734L91.8089 76.1522L91.8078 76.15ZM54.3738 45.9628H45.013C45.013 54.0383 44.9753 62.0628 44.9753 70.1505C44.9753 75.2835 45.2374 79.9967 44.3999 81.4463C43.0247 84.3166 39.4835 83.95 37.875 83.4457C36.3755 82.6528 35.1651 81.4059 34.4171 79.8834C34.2789 79.5884 34.101 79.3137 33.8884 79.0669L26.2838 83.7545C27.4715 86.3512 29.3879 88.547 31.8001 90.075C35.8791 92.3122 40.6559 92.9153 45.163 91.7623C46.7639 91.369 48.2636 90.6419 49.564 89.6287C50.8643 88.6155 51.936 87.339 52.7087 85.8828C54.8337 82.0083 54.3838 77.2574 54.3627 71.9411C54.4127 63.3879 54.3627 54.8203 54.3627 46.1949L54.3793 45.9617L54.3738 45.9628Z" fill="#EAD41C"/>
</svg>
