<svg width="168" height="100" viewBox="0 0 168 100" fill="none" xmlns="http://www.w3.org/2000/svg">
<path d="M2.98815 73.2704H0V26.1006H3.7745L53.1576 100L2.98815 29.717V73.2704Z" fill="white"/>
<path d="M39.3177 26.1006H71.0865V28.4591H42.3059V47.4843H69.1992V49.8428H42.3059V70.4403H71.401V73.1132H39.3177V26.1006Z" fill="white"/>
<path d="M76.4337 72.7987H73.2883L90.5881 49.0566L74.2319 26.1006H77.5346L92.318 46.5409L128.176 0L94.3626 49.0566L111.662 72.7987H108.045L92.318 51.1006L76.4337 72.7987Z" fill="white"/>
<path d="M132.246 28.4591V72.956H129.415V28.4591H112.921V26.1006H148.759V28.4591H132.246Z" fill="white"/>
<path d="M148.59 69.7353C148.298 69.7353 148.046 69.6373 147.836 69.4414C147.625 69.2421 147.52 69.0023 147.52 68.7219C147.52 68.4449 147.625 68.2084 147.836 68.0125C148.046 67.8131 148.298 67.7135 148.59 67.7135C148.883 67.7135 149.134 67.8131 149.345 68.0125C149.555 68.2084 149.66 68.4449 149.66 68.7219C149.66 68.9077 149.61 69.0783 149.51 69.2337C149.414 69.3857 149.286 69.5073 149.125 69.5985C148.965 69.6897 148.786 69.7353 148.59 69.7353Z" fill="white"/>
<path d="M156.19 59.2614H157.838V66.619C157.838 67.2845 157.699 67.8537 157.421 68.3266C157.146 68.7996 156.759 69.161 156.26 69.411C155.761 69.6576 155.176 69.7809 154.505 69.7809C153.888 69.7809 153.333 69.6745 152.841 69.4617C152.352 69.2489 151.965 68.9398 151.68 68.5344C151.398 68.1256 151.257 67.629 151.257 67.0446H152.9C152.9 67.3318 152.97 67.5801 153.109 67.7895C153.251 67.9989 153.446 68.1628 153.692 68.281C153.942 68.3959 154.227 68.4533 154.548 68.4533C154.897 68.4533 155.194 68.3841 155.436 68.2456C155.682 68.1037 155.869 67.8959 155.998 67.6223C156.126 67.3487 156.19 67.0142 156.19 66.619V59.2614Z" fill="white"/>
<path d="M166.221 61.9875C166.164 61.5078 165.929 61.1362 165.515 60.8727C165.101 60.6059 164.58 60.4724 163.953 60.4724C163.503 60.4724 163.114 60.54 162.786 60.6751C162.458 60.8069 162.203 60.9893 162.021 61.2224C161.843 61.4521 161.754 61.7139 161.754 62.0078C161.754 62.2544 161.814 62.4672 161.935 62.6463C162.06 62.8253 162.223 62.9756 162.422 63.0973C162.626 63.2155 162.843 63.3152 163.075 63.3962C163.307 63.4739 163.53 63.5381 163.744 63.5888L164.814 63.8523C165.164 63.9333 165.522 64.0431 165.889 64.1816C166.257 64.3201 166.597 64.5026 166.911 64.7289C167.225 64.9552 167.478 65.2356 167.671 65.5701C167.867 65.9045 167.965 66.3048 167.965 66.771C167.965 67.3588 167.805 67.8807 167.484 68.3368C167.166 68.7928 166.704 69.1526 166.098 69.4161C165.495 69.6796 164.766 69.8113 163.91 69.8113C163.089 69.8113 162.38 69.688 161.78 69.4414C161.181 69.1948 160.712 68.8452 160.373 68.3925C160.034 67.9364 159.847 67.3959 159.811 66.771H161.47C161.502 67.146 161.63 67.4584 161.855 67.7084C162.083 67.955 162.374 68.1391 162.727 68.2608C163.084 68.379 163.475 68.4381 163.899 68.4381C164.366 68.4381 164.782 68.3689 165.146 68.2304C165.513 68.0885 165.802 67.8925 166.012 67.6426C166.223 67.3892 166.328 67.0936 166.328 66.7558C166.328 66.4484 166.235 66.1967 166.05 66.0008C165.868 65.8048 165.62 65.6427 165.306 65.5143C164.996 65.386 164.645 65.2728 164.252 65.1748L162.957 64.8404C162.08 64.614 161.384 64.2813 160.871 63.8421C160.361 63.403 160.106 62.8219 160.106 62.099C160.106 61.5011 160.277 60.9792 160.619 60.5332C160.962 60.0873 161.425 59.7411 162.01 59.4945C162.595 59.2445 163.255 59.1195 163.99 59.1195C164.732 59.1195 165.386 59.2428 165.954 59.4894C166.524 59.736 166.974 60.0755 167.302 60.5079C167.63 60.9369 167.801 61.4301 167.816 61.9875H166.221Z" fill="white"/>
</svg>
