<svg width="164" height="100" viewBox="0 0 164 100" fill="none" xmlns="http://www.w3.org/2000/svg">
<path d="M80.8722 100C80.3352 100 79.7983 99.8469 79.3125 99.5918L74.4034 96.6835C73.6619 96.2754 74.0199 96.1223 74.2756 96.0458C75.2472 95.7141 75.4517 95.6376 76.5 95.0253C76.6023 94.9743 76.7557 94.9998 76.858 95.0508L80.642 97.2958C80.7699 97.3723 80.9744 97.3723 81.1023 97.2958L95.8807 88.7751C96.0085 88.6986 96.1108 88.5455 96.1108 88.3669V71.351C96.1108 71.1724 96.0341 71.0193 95.8807 70.9428L81.1023 62.4476C80.9744 62.371 80.7955 62.371 80.642 62.4476L65.8636 70.9428C65.7102 71.0193 65.6335 71.1979 65.6335 71.351V88.3669C65.6335 88.52 65.7358 88.673 65.8636 88.7496L69.9034 91.0711C72.1023 92.1681 73.4574 90.867 73.4574 89.5915V72.7796C73.4574 72.55 73.6364 72.3459 73.892 72.3459H75.7585C75.9886 72.3459 76.1932 72.5245 76.1932 72.7796V89.5915C76.1932 92.5252 74.608 94.1835 71.821 94.1835C70.9773 94.1835 70.2869 94.1835 68.4205 93.2651L64.5341 91.0456C63.5881 90.4843 62.9744 89.4639 62.9744 88.3669V71.351C62.9744 70.254 63.5625 69.208 64.5341 68.6723L79.3125 60.1516C80.2585 59.6158 81.4858 59.6158 82.4062 60.1516L97.1847 68.6723C98.1307 69.2336 98.7443 70.254 98.7443 71.351V88.3669C98.7443 89.4639 98.1562 90.5098 97.1847 91.0456L82.4062 99.5663C81.9716 99.8469 81.4347 100 80.8722 100V100ZM92.8125 83.2137C92.8125 80.0248 90.6648 79.1829 86.1136 78.5706C81.5114 77.9584 81.0511 77.6522 81.0511 76.5808C81.0511 75.6879 81.4347 74.5144 84.8352 74.5144C87.8778 74.5144 89.0028 75.1777 89.4631 77.2185C89.5142 77.4226 89.6676 77.5502 89.8722 77.5502H91.7898C91.9176 77.5502 92.0199 77.4992 92.0966 77.4226C92.1733 77.3206 92.2244 77.2185 92.1989 77.091C91.892 73.5704 89.5653 71.9377 84.8352 71.9377C80.6165 71.9377 78.1108 73.7235 78.1108 76.6828C78.1108 79.9227 80.6165 80.7901 84.6562 81.1983C89.4886 81.683 89.8722 82.3718 89.8722 83.3157C89.8722 84.9739 88.5426 85.6627 85.4233 85.6627C81.5114 85.6627 80.642 84.6933 80.3608 82.7545C80.3352 82.5504 80.1562 82.3973 79.9261 82.3973H78.0085C77.7784 82.3973 77.5739 82.5759 77.5739 82.831C77.5739 85.3056 78.929 88.2649 85.3977 88.2649C90.1278 88.2649 92.8125 86.4281 92.8125 83.2137V83.2137ZM106.747 70.4326C106.747 71.9888 105.469 73.2643 103.909 73.2643C102.349 73.2643 101.071 71.9888 101.071 70.4326C101.071 68.8254 102.401 67.6008 103.909 67.6008C105.443 67.5753 106.747 68.8254 106.747 70.4326ZM106.287 70.4326C106.287 69.106 105.213 68.06 103.884 68.06C102.58 68.06 101.506 69.106 101.506 70.4326C101.506 71.7592 102.58 72.8306 103.884 72.8306C105.213 72.8051 106.287 71.7336 106.287 70.4326ZM105.136 72.0143H104.472C104.446 71.8612 104.344 71.0448 104.344 71.0193C104.293 70.8408 104.241 70.7387 104.011 70.7387H103.449V72.0143H102.835V68.8254H103.935C104.318 68.8254 105.06 68.8254 105.06 69.6672C105.06 70.254 104.676 70.3816 104.446 70.4581C104.881 70.4836 104.906 70.7642 104.983 71.1724C105.009 71.4275 105.06 71.8612 105.136 72.0143V72.0143ZM104.42 69.7693C104.42 69.3356 104.114 69.3356 103.96 69.3356H103.449V70.2285H103.935C104.344 70.2285 104.42 69.9479 104.42 69.7693V69.7693ZM35.1051 33.4159C35.1051 32.7271 34.7472 32.1148 34.1591 31.7832L18.4858 22.7778C18.2301 22.6247 17.9233 22.5482 17.6165 22.5226H17.4631C17.1563 22.5226 16.875 22.6247 16.5938 22.7778L0.946023 31.7832C0.357955 32.1148 0 32.7526 0 33.4159L0.0255682 57.6515C0.0255682 57.9831 0.204545 58.2893 0.485795 58.4678C0.767045 58.6464 1.125 58.6464 1.43182 58.4678L10.7386 53.136C11.3267 52.7789 11.6847 52.1666 11.6847 51.5033V40.1764C11.6847 39.5131 12.0426 38.8753 12.6307 38.5436L16.5938 36.2731C16.9006 36.0946 17.2074 36.018 17.5398 36.018C17.8722 36.018 18.2045 36.0946 18.4858 36.2731L22.4489 38.5436C23.0369 38.8753 23.3949 39.5131 23.3949 40.1764V51.5033C23.3949 52.1666 23.7528 52.8044 24.3409 53.136L33.6477 58.4678C33.929 58.6464 34.3125 58.6464 34.5938 58.4678C34.875 58.3148 35.054 57.9831 35.054 57.6515L35.1051 33.4159ZM120.81 6.96084V51.9625C120.81 52.6258 120.452 53.2636 119.864 53.5952L104.19 62.6262C103.602 62.9578 102.886 62.9578 102.298 62.6262L86.625 53.5952C86.0369 53.2636 85.679 52.6258 85.679 51.9625V33.9006C85.679 33.2373 86.0369 32.5995 86.625 32.2679L102.298 23.237C102.886 22.9053 103.602 22.9053 104.19 23.237L108.102 25.4819C108.537 25.737 109.099 25.4054 109.099 24.9207V0.940208C109.099 0.225895 109.866 -0.233305 110.506 0.123851L119.838 5.32813C120.426 5.63426 120.81 6.27204 120.81 6.96084V6.96084ZM109.048 39.8447C109.048 39.6661 108.946 39.5131 108.818 39.4365L103.449 36.3242C103.295 36.2476 103.116 36.2476 102.963 36.3242L97.5938 39.4365C97.4403 39.5131 97.3636 39.6661 97.3636 39.8447V46.0439C97.3636 46.2225 97.4659 46.3756 97.5938 46.4521L102.963 49.5389C103.116 49.6155 103.295 49.6155 103.423 49.5389L108.793 46.4521C108.946 46.3756 109.023 46.2225 109.023 46.0439V39.8447H109.048ZM162.69 39.6661C163.278 39.3345 163.636 38.6967 163.636 38.0334V33.671C163.636 33.0077 163.278 32.3699 162.69 32.0383L147.119 23.0073C146.531 22.6757 145.815 22.6757 145.227 23.0073L129.554 32.0383C128.966 32.3699 128.608 33.0077 128.608 33.671V51.7329C128.608 52.4217 128.966 53.034 129.554 53.3656L145.125 62.218C145.687 62.5496 146.403 62.5496 146.991 62.218L156.401 56.9882C157.04 56.631 157.04 55.7126 156.401 55.3555L140.625 46.3245C140.318 46.146 140.139 45.8398 140.139 45.5082V39.8447C140.139 39.5131 140.318 39.2069 140.625 39.0284L145.534 36.1966C145.815 36.018 146.199 36.018 146.48 36.1966L151.389 39.0284C151.67 39.2069 151.875 39.5131 151.875 39.8447V44.2836C151.875 44.998 152.668 45.4572 153.307 45.1L162.69 39.6661V39.6661ZM142.926 40.559C142.824 40.6356 142.747 40.7376 142.747 40.8652V44.3347C142.747 44.4622 142.824 44.5898 142.926 44.6408L145.943 46.3756C146.045 46.4521 146.199 46.4521 146.301 46.3756L149.318 44.6408C149.42 44.5643 149.497 44.4622 149.497 44.3347V40.8652C149.497 40.7376 149.42 40.61 149.318 40.559L146.301 38.8243C146.199 38.7477 146.045 38.7477 145.943 38.8243L142.926 40.559ZM77.9318 51.6564V33.6965C77.9318 33.0332 77.5227 32.3955 76.9347 32.0638L61.3125 23.0839C60.7756 22.7777 60.0341 22.7267 59.4205 23.0839L43.7983 32.0638C43.2102 32.3955 42.8011 33.0077 42.8011 33.6965V51.6564C42.8011 52.3707 43.2869 52.9829 43.8239 53.2891L59.4716 62.269C60.0852 62.6262 60.8011 62.6007 61.3636 62.269L76.9602 53.2891C77.4205 53.034 77.7528 52.6003 77.8807 52.0901C77.9062 51.9625 77.9318 51.8094 77.9318 51.6564ZM58.9347 19.7929L58.7301 19.9205H59.0114L58.9347 19.7929V19.7929ZM78.4176 53.0085L78.3153 52.8299V53.0595L78.4176 53.0085Z" fill="#1ADB5C"/>
</svg>
