<svg width="113" height="100" viewBox="0 0 113 100" fill="none" xmlns="http://www.w3.org/2000/svg">
<path d="M56.2971 59.931C61.8516 59.931 66.3544 55.4349 66.3544 49.8887C66.3544 44.3425 61.8516 39.8465 56.2971 39.8465C50.7426 39.8465 46.2397 44.3425 46.2397 49.8887C46.2397 55.4349 50.7426 59.931 56.2971 59.931Z" fill="#28CAE7"/>
<path d="M56.2971 72.8939C42.1727 72.8939 29.8314 71.2335 20.5955 68.0728C14.6052 66.0324 9.51641 63.3118 5.89016 60.2111C2.04352 56.9303 0 53.3495 0 49.8887C0 43.2472 7.29258 36.7458 19.5337 32.5048C29.551 29.024 42.6135 27.0836 56.2771 27.0836C69.7002 27.0836 82.5824 28.964 92.5396 32.4048C98.3697 34.4052 103.278 37.0058 106.764 39.8865C110.551 43.0472 112.554 46.508 112.554 49.8887C112.554 56.7903 104.4 63.7719 91.2574 68.1128C81.9614 71.1935 69.5399 72.8939 56.2971 72.8939ZM56.2971 31.8847C43.3347 31.8847 30.5126 33.7651 21.1365 37.0258C9.87703 40.9467 4.82833 46.3079 4.82833 49.8887C4.82833 53.6096 10.2577 59.4709 22.1582 63.5318C30.8933 66.5125 42.7137 68.0928 56.2971 68.0928C69.0391 68.0928 80.9196 66.4925 89.7548 63.5518C102.116 59.4509 107.766 53.5896 107.766 49.8887C107.766 47.9883 106.323 45.7478 103.699 43.5673C100.674 41.0467 96.266 38.7462 90.9969 36.9258C81.5206 33.6851 69.1993 31.8847 56.2971 31.8847Z" fill="#28CAE7"/>
<path d="M33.4777 99.94C31.4342 99.94 29.6311 99.4999 28.1085 98.6197C22.3586 95.2989 20.3551 85.7368 22.7793 73.0339C24.7627 62.6116 29.6111 50.3688 36.4429 38.5462C43.1544 26.9436 51.2083 16.7413 59.162 9.83972C63.81 5.79882 68.5182 2.83815 72.7655 1.2778C77.3935 -0.422584 81.4004 -0.422584 84.3254 1.25779C90.3158 4.69857 92.2992 15.2609 89.4944 28.784C87.5109 38.3861 82.7828 49.9687 76.1714 61.4313C69.1192 73.6341 61.5061 83.4763 54.1534 89.8977C49.3852 94.0587 44.4767 97.0994 39.989 98.6797C37.6449 99.5199 35.4411 99.94 33.4777 99.94ZM38.5064 39.7464L40.59 40.9467C34.1188 52.1492 29.3306 64.1719 27.4874 73.9341C25.2636 85.6368 27.4073 92.6784 30.4926 94.4588C31.2539 94.8989 32.2556 95.1389 33.4777 95.1389C37.4646 95.1389 43.7354 92.6183 50.9879 86.2969C57.9399 80.2356 65.2125 70.7934 72.0042 59.0508C78.3752 48.0283 82.903 36.9458 84.7862 27.8438C87.4108 15.1009 85.1468 7.29915 81.9213 5.43873C80.2785 4.49852 77.6139 4.61855 74.4083 5.79881C70.7019 7.15912 66.5147 9.81972 62.3075 13.4805C54.7544 20.042 47.0411 29.8042 40.59 40.9667L38.5064 39.7464Z" fill="#28CAE7"/>
<path d="M79.1164 100C73.6671 100 66.7551 96.7193 59.5427 90.5179C51.4888 83.5963 43.2947 73.294 36.4429 61.4713C29.7112 49.8687 24.9029 37.806 22.8795 27.4637C21.6974 21.4223 21.477 15.8811 22.2384 11.4201C23.0798 6.55899 25.0632 3.09821 28.0083 1.39783C33.9786 -2.06295 44.1361 1.49785 54.4739 10.6799C61.8066 17.1814 69.4999 27.0636 76.1313 38.5062C83.2035 50.7089 87.9517 62.2115 89.8349 71.7737C91.057 77.975 91.2574 83.7363 90.3959 88.4174C89.4743 93.3985 87.3907 96.9393 84.3855 98.6797C82.8829 99.5599 81.0999 100 79.1164 100ZM40.61 59.0708C47.1012 70.2733 55.1551 80.4156 62.6881 86.8771C71.7237 94.6388 78.8961 96.3192 82.0014 94.5188C85.227 92.6584 87.5911 85.0366 85.1469 72.7139C83.3437 63.6718 78.7959 52.6694 71.9841 40.9267C65.5931 29.9042 58.2404 20.4421 51.2885 14.2807C41.5517 5.63878 33.658 3.69834 30.4325 5.55876C28.7897 6.49897 27.5675 8.87951 26.9865 12.2403C26.3254 16.1211 26.5257 21.0823 27.6076 26.5435C29.5309 36.3657 34.1389 47.9083 40.61 59.0708Z" fill="#28CAE7"/>
</svg>
