<svg width="134" height="100" viewBox="0 0 134 100" fill="none" xmlns="http://www.w3.org/2000/svg">
<path d="M62.8794 75.6031C62.755 75.8282 62.8172 75.729 62.8794 75.6031ZM114.776 57.4789C110.586 57.4779 106.451 58.4407 102.693 60.2927C101.515 58.331 100.606 56.2207 99.9882 54.0178C99.6335 52.2841 99.5561 50.5051 99.7587 48.747C100.161 46.8254 100.689 44.9325 101.342 43.0808C101.321 42.8513 101.046 41.7065 98.3621 41.6857C95.6786 41.665 93.3624 42.2071 93.0943 42.915C92.6194 44.2095 92.2499 45.5403 91.9895 46.8943C91.5096 49.332 86.6165 58.0402 83.8441 62.5808C82.9948 61.157 82.3694 59.6111 81.9899 57.9972C81.6352 56.2635 81.5577 54.4844 81.7604 52.7264C82.1635 50.8037 82.6939 48.9098 83.348 47.0573C83.3273 46.8277 83.0518 45.6829 80.3712 45.6622C77.6907 45.6414 75.3714 46.1835 75.1004 46.8914C74.8294 47.5993 74.5377 49.2609 73.9956 50.8708C73.4536 52.4806 66.9402 66.9794 65.2297 70.7529C64.3545 72.6693 63.6006 74.211 63.0631 75.2521C62.9801 75.4194 62.915 75.5231 62.875 75.606C62.9372 75.5024 62.9786 75.3972 62.9786 75.4387C62.521 76.3273 62.25 76.8338 62.25 76.8338V76.8545C61.896 77.5209 61.5006 78.1252 61.3125 78.1252C60.9964 76.7584 61.0177 75.3351 61.3747 73.9784C62.3537 68.9431 64.6669 61.1043 64.6447 60.8333C64.624 60.6852 65.089 59.3331 63.1238 58.6044C62.6731 58.3924 62.1686 58.3227 61.6773 58.4044C61.1861 58.4862 60.7313 58.7156 60.3736 59.062C60.2062 59.062 60.0774 59.4782 60.0774 59.4782C60.0774 59.4782 62.1819 50.6457 56.0373 50.6457C52.2045 50.6457 46.8715 54.8531 44.2502 58.6666C42.6048 59.5552 39.0416 61.4997 35.2918 63.5627C33.8537 64.3551 32.3757 65.1666 30.9792 65.9323C30.8755 65.8286 30.7911 65.7235 30.683 65.6198C23.2396 57.667 9.47835 52.0422 10.0574 41.3555C10.2662 37.4605 11.6198 27.2314 36.5284 14.8149C56.9437 4.64948 73.2655 7.43964 76.0705 13.6479C80.1121 22.5012 67.3446 38.9726 46.1429 41.3555C38.0627 42.2441 33.8138 39.1266 32.7519 37.9596C31.6471 36.7304 31.4812 36.6682 31.0651 36.8977C30.3779 37.2724 30.8148 38.3565 31.0651 39.0022C31.8767 40.4659 32.9728 41.7526 34.289 42.7864C35.6052 43.8203 37.1148 44.5805 38.7291 45.0224C42.6241 46.2931 52.0994 47.001 63.5547 42.564C76.4244 37.6057 86.4432 23.7941 83.5065 12.2321C80.5208 0.482007 61.0386 -3.37149 42.6167 3.16998C31.6397 7.07087 19.7697 13.1903 11.2303 21.1683C1.08714 30.6688 -0.536015 38.9385 0.130424 42.3966C2.50443 54.6665 19.4157 62.6667 26.1838 68.5832C25.8505 68.7713 25.5381 68.9372 25.2463 69.1045C21.8534 70.7914 8.95556 77.5461 5.73296 84.6667C2.08679 92.7498 6.3372 98.5404 9.12588 99.3283C17.8311 101.745 26.7495 97.3912 31.5345 90.2455C36.3196 83.0998 35.742 73.7667 33.5339 69.5118C33.5131 69.4496 33.4717 69.4082 33.4509 69.3445C34.3262 68.8232 35.2281 68.3078 36.1167 67.782C37.8435 66.7616 39.5318 65.8242 41.0039 65.0111C40.0078 67.8726 39.4185 70.8598 39.2534 73.8851C38.8787 78.4688 40.7743 84.4001 43.2328 86.7385C43.6721 87.1149 44.1817 87.4003 44.732 87.5782C45.2824 87.7562 45.8626 87.8231 46.4391 87.7752C49.3137 87.7752 50.6051 85.4057 52.0416 82.5666C53.8188 79.1085 55.3753 75.0877 55.3753 75.0877C55.3753 75.0877 53.4174 85.9625 58.7712 85.9625C60.7275 85.9625 62.6854 83.4448 63.5621 82.1505V82.1712C63.5621 82.1712 63.6036 82.0883 63.7102 81.9209C63.9191 81.6084 64.0227 81.4204 64.0227 81.4204V81.3582C64.815 80.0045 66.5404 76.9004 69.1454 71.7748C72.5206 65.1503 75.7476 56.8791 75.7476 56.8791C76.0594 58.697 76.4908 60.4924 77.039 62.2536C77.8266 64.3977 78.7593 66.4858 79.8307 68.5033C79.0383 69.5859 78.56 70.2108 78.56 70.2108C78.5616 70.2267 78.569 70.2415 78.5807 70.2523C77.9558 71.0861 77.2478 71.9821 76.5177 72.8559C74.2588 75.3217 72.1707 77.9387 70.268 80.6888C69.9842 81.1495 69.8866 81.701 69.995 82.2311C70.1034 82.7613 70.4097 83.2302 70.8515 83.5426C71.8518 84.0776 73.0029 84.2612 74.12 84.0639C75.8053 83.9775 77.4624 83.5966 79.0161 82.9384C80.5159 82.408 81.9345 81.6713 83.231 80.7495C84.5604 79.8308 85.6308 78.5851 86.3387 77.1324C87.0466 75.6797 87.3682 74.0691 87.2726 72.456C87.1156 70.4235 86.5996 68.4349 85.7487 66.5824C85.9782 66.2492 86.2285 65.8953 86.4566 65.5458C89.1682 61.5016 91.6102 57.283 93.7667 52.9175C94.0784 54.7354 94.5098 56.5308 95.0581 58.2919C95.7043 60.1367 96.4967 61.927 97.4276 63.6457C94.3085 66.0447 91.8602 69.2071 90.3189 72.8277C88.7772 77.2707 89.9857 79.2655 92.2561 79.7232C93.4868 79.7987 94.7156 79.5473 95.8178 78.9945C97.4306 78.458 98.9511 77.6762 100.326 76.6768C102.928 74.7663 105.446 72.0858 105.281 68.4322C105.173 66.7568 104.792 65.1102 104.156 63.5568C108.264 61.9425 112.722 61.4255 117.091 62.0566C128.69 63.4102 130.961 70.6596 130.523 73.6808C130.316 74.7621 129.88 75.7865 129.244 76.685C128.608 77.5835 127.787 78.3352 126.835 78.8894C126.022 79.3899 125.774 79.5765 125.836 79.9512C125.939 80.4933 126.316 80.4725 127.003 80.3466C128.746 79.797 130.281 78.7326 131.408 77.2935C132.534 75.8545 133.198 74.1081 133.313 72.2842C133.646 65.2007 126.837 57.4093 114.773 57.4744L114.776 57.4789ZM25.3707 87.6242C21.5394 91.8109 16.165 93.4 13.8546 92.0671C11.3755 90.6261 12.3544 84.4638 17.0817 80.0016C19.8807 77.4805 22.9046 75.221 26.1156 73.2513C26.6784 72.9181 27.49 72.4175 28.4852 71.8133C28.6526 71.7096 28.7355 71.6652 28.7355 71.6652C28.9236 71.5408 29.1309 71.4356 29.3397 71.3112C30.1834 74.1386 30.2595 77.1396 29.5602 80.0061C28.8608 82.8727 27.4113 85.5015 25.3603 87.6227L25.3707 87.6242ZM53.3612 68.5832C52.0283 71.8532 49.2144 80.1867 47.5098 79.7498C46.0511 79.3751 45.1551 73.0203 47.2136 66.772C48.2595 63.7529 49.8016 60.9295 51.7765 58.4178C53.878 56.0631 56.1913 55.3078 56.7319 56.2512C57.462 57.4789 54.195 66.541 53.3612 68.5832ZM76.4851 79.6239C75.9224 79.9201 75.4025 80.1038 75.1523 79.9572C74.9642 79.8535 75.3818 79.4566 75.3818 79.4566C75.3818 79.4566 78.2771 76.3465 79.4234 74.9366C80.0898 74.1028 80.8614 73.1239 81.6923 72.0413C81.6923 72.145 81.713 72.2501 81.713 72.3745C81.6863 76.1036 78.1053 78.6243 76.4792 79.6313L76.4851 79.6239ZM94.3131 75.5616C93.897 75.2654 93.9592 74.2909 95.3498 71.249C96.3133 69.2993 97.6596 67.5636 99.3085 66.1456C99.5538 66.871 99.6871 67.6296 99.7039 68.3952C99.7229 70.0177 99.2039 71.6009 98.2281 72.8974C97.2523 74.1939 95.8746 75.1308 94.3102 75.5616H94.3131Z" fill="#BB5E8C"/>
</svg>
