<svg width="167" height="100" viewBox="0 0 167 100" fill="none" xmlns="http://www.w3.org/2000/svg">
<path d="M83.3559 0C61.127 0 47.2347 11.1113 41.6769 33.3319C50.0136 22.2206 59.7386 18.0554 70.852 20.8322C77.1936 22.4166 81.7257 27.0174 86.7435 32.1082C94.9155 40.4011 104.374 49.999 125.035 49.999C147.262 49.999 161.156 38.8876 166.712 16.6649C158.377 27.7763 148.652 31.9435 137.537 29.1668C131.197 27.5824 126.665 22.9815 121.647 17.8907C113.475 9.59787 104.015 0 83.3559 0V0ZM41.6769 49.999C19.4501 49.999 5.55567 61.1103 0 83.333C8.33455 72.2216 18.0596 68.0544 29.1751 70.8332C35.5146 72.4197 40.0467 77.0185 45.0645 82.1072C53.2365 90.4 62.6967 100 83.3559 100C105.585 100 119.477 88.8887 125.035 66.666C116.698 77.7773 106.973 81.9446 95.8598 79.1657C89.5182 77.5834 84.9861 72.9805 79.9683 67.8918C71.7964 59.5989 62.3382 49.999 41.6769 49.999V49.999Z" fill="#15B4C1"/>
</svg>
