<svg width="1300" height="1300" viewBox="0 0 1300 1300" fill="none" xmlns="http://www.w3.org/2000/svg">
<path d="M650 1300C290.71 1300 0 1008.86 0 650C0 290.71 291.141 0 650 0C1009.29 0 1300 291.141 1300 650C1300.43 1009.29 1009.29 1300 650 1300Z" fill="url(#paint0_linear_26_635)"/>
<mask id="mask0_26_635" style="mask-type:alpha" maskUnits="userSpaceOnUse" x="0" y="0" width="1301" height="1300">
<path d="M650 1300C290.71 1300 0 1008.86 0 650C0 290.71 291.141 0 650 0C1009.29 0 1300 291.141 1300 650C1300.43 1009.29 1009.29 1300 650 1300Z" fill="#F7C0B5"/>
</mask>
<g mask="url(#mask0_26_635)">
<path d="M1013.13 1197.32C1010.1 1199.48 1006.63 1201.65 1003.6 1203.82C1000.13 1205.98 997.099 1208.15 993.633 1209.88C990.599 1211.62 987.999 1213.35 984.966 1215.08C984.533 1215.52 984.099 1215.52 983.666 1215.95C973.699 1222.02 963.299 1227.65 952.899 1232.85C949.866 1234.58 946.399 1236.32 943.366 1237.62C943.366 1237.62 942.933 1238.05 942.499 1238.05C939.033 1239.78 935.566 1241.52 932.099 1243.25C925.166 1246.72 917.799 1249.75 910.866 1252.78C907.399 1254.52 903.499 1255.82 900.033 1257.12C896.566 1258.42 892.666 1260.15 889.199 1261.45C885.733 1262.75 881.833 1264.48 878.366 1265.78C878.366 1265.78 878.366 1265.78 877.933 1265.78C874.466 1267.08 870.566 1268.38 867.099 1269.68C859.299 1272.28 851.066 1274.88 843.266 1277.48C840.666 1278.35 837.633 1279.22 835.033 1280.08C826.799 1282.68 818.566 1284.85 810.333 1286.58C807.299 1287.45 804.266 1287.88 800.799 1288.75C792.999 1290.48 784.766 1292.22 776.966 1293.95C775.233 1294.38 773.933 1294.38 772.199 1294.82C769.599 1295.25 766.566 1295.68 763.966 1296.12C760.066 1296.55 756.599 1297.42 752.699 1297.85C750.966 1298.28 749.233 1298.28 747.499 1298.72C745.333 1299.15 742.733 1299.58 740.133 1299.58C733.199 1300.45 725.833 1301.32 718.899 1302.18C716.733 1302.62 714.133 1302.62 711.966 1303.05H711.533C708.499 1303.48 705.466 1303.48 702.433 1303.92C699.399 1304.35 696.366 1304.35 693.333 1304.35C691.599 1304.35 689.433 1304.78 687.699 1304.78C684.233 1304.78 681.199 1305.22 678.166 1305.22C673.833 1305.22 669.933 1305.65 665.599 1305.65C661.266 1305.65 657.366 1305.65 653.033 1305.65C649.999 1305.65 646.966 1305.65 643.933 1305.65C461.499 1303.05 296.833 1225.48 179.833 1102.42C179.833 1102.42 179.833 1101.98 179.399 1101.98C192.833 1075.55 305.066 1083.36 357.066 1043.93C422.933 994.098 453.699 907.85 453.699 907.85C453.699 907.85 514.799 897.883 741.433 945.117C914.333 981.517 987.999 1129.28 1013.13 1197.32Z" fill="#EFCBB3"/>
<path d="M789.533 1065.15C780.433 1109.78 721.5 1136.22 622.266 1096.35C500.5 1046.95 453.7 907.85 453.7 907.85C447.2 808.184 432.033 722.817 432.033 722.817C572.866 710.684 739.266 875.35 739.266 875.35L758.333 956.817C760.066 963.75 763.533 969.817 768.733 974.15C777.833 989.75 795.6 1036.55 789.533 1065.15Z" fill="#EFCBB3"/>
<path d="M768.733 974.584C685.966 970.25 624.866 958.117 559.433 840.684C614.899 889.65 680.333 908.284 749.233 916.95L758.333 956.817C760.066 964.184 763.533 970.25 768.733 974.584Z" fill="#EFCBB3"/>
<path d="M939.899 452.417C947.699 488.817 951.599 518.284 930.366 615.35C909.133 712.417 949.866 809.484 847.599 898.317C778.699 958.117 658.233 969.384 562.033 903.95C529.533 881.85 499.633 851.084 475.366 810.784C456.299 779.15 434.199 749.25 409.499 721.95C375.266 684.684 334.099 609.717 354.466 477.117C387.399 261.317 601.033 236.617 727.133 260.45C853.233 284.284 918.666 356.217 939.899 452.417Z" fill="#EFCBB3"/>
<path d="M525.199 621.85C525.199 621.85 511.766 556.85 448.499 564.65C393.899 571.584 374.833 702.45 498.766 738.85" fill="#EFCBB3"/>
<path d="M494.867 679.484C494.867 679.484 479.267 669.517 481 652.184C483.6 631.817 481 619.25 471.467 615.35C447.633 605.384 442.867 633.117 443.733 636.584" stroke="#423232" stroke-opacity="0.2" stroke-width="13" stroke-miterlimit="10" stroke-linecap="round" stroke-linejoin="round"/>
<path d="M825.499 721.517C825.499 721.517 841.966 722.384 857.566 703.75C866.232 693.35 873.599 680.35 868.832 676.45C864.066 672.117 785.632 684.25 780.432 694.65C775.232 705.05 805.566 721.517 825.499 721.517Z" fill="#EFCBB3"/>
<path d="M816.833 575.917C816.833 575.917 817.7 617.084 844.133 663.017C855.833 683.384 838.066 716.751 799.5 722.384" stroke="#423232" stroke-opacity="0.2" stroke-width="13" stroke-miterlimit="10" stroke-linecap="round" stroke-linejoin="round"/>
<path d="M906.533 816.417C906.533 816.85 906.533 816.85 906.533 816.417C906.1 816.85 906.1 816.85 906.533 816.417C895.7 844.583 877.933 871.45 847.6 897.883C778.7 957.683 658.233 968.95 562.033 903.517C551.2 896.15 540.8 887.917 530.833 878.817C523.9 870.15 517.833 861.05 512.633 851.517C481.433 793.017 494.867 738.417 494.867 738.417C494.867 738.417 512.633 738.85 533.867 780.45C551.633 815.117 620.1 813.817 648.266 748.817C679.466 676.45 757.466 708.083 775.233 715.017C793 721.95 820.733 721.95 820.733 721.95C890.933 721.083 869.7 768.317 877.066 794.317C887.9 829.85 906.533 816.417 906.533 816.417Z" fill="#423232" fill-opacity="0.2"/>
<path d="M1057.78 1116.61C996.25 1037.31 900.917 1004.37 848.483 984.873C844.15 963.206 835.917 939.373 822.917 916.406C802.983 928.54 780.017 937.64 756.184 942.406L759.65 956.706C761.383 963.64 770.05 995.706 756.617 1036.87C745.35 1071.54 699.85 1087.14 622.717 1052.04C472.35 984.006 455.017 907.306 455.017 907.306C452.417 865.706 448.084 826.706 444.184 795.073C397.384 805.473 343.217 826.706 313.75 871.34C277.35 925.94 263.917 972.74 267.384 1016.94C204.117 1057.24 106.184 1127.01 74.1168 1236.21C32.5168 1378.34 39.4502 1465.44 39.4502 1465.44H1159.18C1157.88 1465.87 1141.42 1224.51 1057.78 1116.61Z" fill="#33404F"/>
<path d="M388.283 974.473C388.283 974.473 414.716 1077.17 530.416 1148.24" stroke="#423232" stroke-width="13" stroke-miterlimit="10" stroke-linecap="round" stroke-linejoin="round"/>
<path d="M848.05 984.873C848.05 984.873 878.817 1117.91 811.65 1179.01" stroke="#423232" stroke-width="13" stroke-miterlimit="10" stroke-linecap="round" stroke-linejoin="round"/>
<path d="M639.183 1158.64C639.183 1158.64 616.65 1224.51 622.717 1270.01" stroke="#423232" stroke-width="13" stroke-miterlimit="10" stroke-linecap="round" stroke-linejoin="round"/>
<path d="M777.417 1154.74C777.417 1154.74 794.318 1191.57 806.451 1250.07" stroke="#423232" stroke-width="13" stroke-miterlimit="10" stroke-linecap="round" stroke-linejoin="round"/>
<path d="M266.517 1026.04C266.517 1026.04 302.05 1170.77 513.517 1213.24" stroke="#423232" stroke-width="13" stroke-miterlimit="10" stroke-linecap="round" stroke-linejoin="round"/>
<path d="M626.617 1279.97L607.55 1278.24C600.617 1277.37 595.417 1270.87 596.717 1263.94L603.217 1231.44C604.95 1222.34 613.617 1215.84 622.717 1217.14C631.817 1218.01 639.183 1225.81 639.183 1235.34L639.617 1268.71C639.617 1275.21 633.55 1280.84 626.617 1279.97Z" fill="white"/>
<path d="M825.517 1260.04L807.317 1266.54C800.384 1269.14 793.017 1264.81 791.717 1257.87L783.917 1225.81C781.75 1216.71 786.517 1207.61 795.617 1204.14C804.284 1201.11 814.25 1205.01 818.15 1213.24L832.45 1243.14C835.484 1249.64 832.45 1257.44 825.517 1260.04Z" fill="white"/>
<path d="M1016.62 1250.07C1016.62 1250.07 1040.88 1386.14 1031.35 1465.87" stroke="#544D4D" stroke-width="13" stroke-miterlimit="10" stroke-linecap="round" stroke-linejoin="round"/>
<path d="M699.71 590.249C699.71 590.683 699.71 591.116 699.71 591.116L699.277 603.249C698.843 613.649 690.177 621.449 679.777 621.016C669.377 620.583 661.577 611.483 662.443 601.516L662.877 589.383C662.877 587.216 663.743 584.616 664.61 582.883L699.277 584.616C699.277 586.349 699.71 588.083 699.71 590.249Z" fill="black"/>
<path d="M880.841 599.783L880.408 611.049C879.975 620.583 871.742 627.949 862.208 627.516C852.675 627.083 845.308 618.849 845.742 609.316L846.175 598.049C846.175 595.883 846.608 593.716 847.475 591.983L879.975 593.283C880.842 595.449 880.841 597.616 880.841 599.783Z" fill="black"/>
<path d="M743.042 530.882C752.576 532.182 759.942 522.216 756.476 512.682C754.742 507.482 751.709 502.716 746.942 499.682C732.209 490.582 677.176 489.716 648.142 510.516C622.576 529.582 699.709 524.816 743.042 530.882Z" fill="black"/>
<path d="M863.074 535.649C855.274 535.649 850.508 525.682 854.408 517.449C856.574 513.116 859.608 509.216 863.941 507.049C877.374 500.549 913.341 504.449 929.374 526.549C943.674 546.049 899.041 535.216 863.074 535.649Z" fill="black"/>
<path d="M727.875 585.482L698.842 584.182L664.175 582.882L656.375 582.449" stroke="black" stroke-width="13" stroke-miterlimit="10" stroke-linecap="round" stroke-linejoin="round"/>
<path d="M899.042 594.149L879.975 593.283L847.475 591.983H846.175" stroke="black" stroke-width="13" stroke-miterlimit="10" stroke-linecap="round" stroke-linejoin="round"/>
<path d="M800.184 776.042C800.618 790.342 779.384 826.742 738.218 809.842C698.784 793.809 687.084 718.409 743.418 754.375C772.884 773.009 790.651 776.042 800.184 776.042Z" fill="white"/>
<path d="M808.417 774.309C808.417 774.309 790.217 784.275 743.417 754.375C687.517 718.409 698.784 793.809 738.217 809.842C779.384 826.742 800.617 789.909 800.184 776.042" stroke="#423232" stroke-width="13" stroke-miterlimit="10" stroke-linecap="round" stroke-linejoin="round"/>
<path d="M705.284 765.209C705.284 765.209 734.751 784.709 743.418 782.975C752.518 781.675 751.217 794.242 792.384 795.542" stroke="#423232" stroke-width="13" stroke-miterlimit="10" stroke-linecap="round" stroke-linejoin="round"/>
<path d="M974.206 347.827C943.44 459.194 854.173 440.56 770.54 410.227C659.173 369.494 561.24 402.427 560.806 502.96C559.94 650.294 523.106 605.66 519.206 600.027C509.673 581.827 489.306 559.294 450.74 564.06C400.04 570.56 380.106 682.36 474.573 728.294C491.04 811.927 445.973 804.127 445.973 804.127C430.806 742.594 303.406 611.727 302.973 525.494C302.973 409.36 361.473 376.427 361.473 376.427C363.206 295.394 447.706 206.127 589.84 209.16C731.973 211.76 819.073 207.86 846.806 174.494C874.539 140.26 1004.97 236.46 974.206 347.827Z" fill="#1A1A1A"/>
<path d="M977.673 481.727C973.34 509.894 961.206 531.56 944.306 547.594C950.806 500.36 947.34 477.827 941.706 451.394C929.573 397.227 903.573 350.427 860.24 315.76C881.906 314.027 904.006 318.794 923.94 331.36C923.94 330.927 995.44 359.96 977.673 481.727Z" fill="#1A1A1A"/>
<path d="M477.159 636.126C477.159 636.126 442.492 630.926 445.092 679.459C446.392 704.159 446.392 717.593 445.959 724.526C445.525 729.293 448.559 733.626 452.892 735.359C458.092 737.526 463.725 735.359 466.325 730.159C470.225 723.226 474.559 713.693 474.559 705.893C474.559 692.893 488.425 681.193 488.425 681.193C488.425 681.193 475.859 670.359 477.159 636.126Z" fill="white"/>
<path d="M582.025 1471.59C578.558 1467.69 442.492 1234.99 462.858 1147.46C476.725 1087.23 458.525 1017.89 442.492 956.793C435.992 931.659 429.925 908.259 426.458 887.459C420.392 851.493 424.725 817.259 439.458 785.626C455.492 750.093 452.892 719.326 452.892 718.893L461.558 718.026C461.558 719.326 464.158 751.826 447.258 789.093C433.392 818.993 429.492 851.926 435.125 886.159C438.592 906.526 444.658 929.926 451.158 955.059C467.625 1017.03 485.825 1087.66 471.525 1150.06C452.458 1233.26 588.092 1465.96 588.958 1466.83L582.025 1471.59Z" fill="white"/>
<path d="M446.392 704.593C446.826 714.126 446.392 720.626 446.392 724.526C445.959 729.292 448.992 733.626 453.326 735.359C458.526 737.526 464.159 735.359 466.759 730.159C470.659 723.226 474.992 713.692 474.992 705.892C474.992 705.459 474.992 704.592 474.992 704.159C465.892 707.626 455.492 710.226 446.392 704.593Z" fill="#E5E5E5"/>
<path d="M854.159 992.759C851.125 1012.69 850.692 1044.33 849.825 1081.16C848.525 1152.23 806.492 1429.13 786.125 1472.89L778.325 1469.43C797.825 1426.96 839.859 1151.36 841.159 1081.16C842.025 1044.33 842.459 1012.26 845.492 991.459C851.992 947.693 847.225 914.759 844.625 900.893C845.925 899.593 847.225 898.726 848.525 897.426C849.825 896.559 850.692 895.259 851.992 894.393C854.592 905.659 861.959 941.626 854.159 992.759Z" fill="white"/>
</g>
<defs>
<linearGradient id="paint0_linear_26_635" x1="303.333" y1="203.667" x2="910" y2="1300" gradientUnits="userSpaceOnUse">
<stop stop-color="#60A5FA"/>
<stop offset="1" stop-color="#630192"/>
</linearGradient>
</defs>
</svg>
