<svg width="147" height="103" viewBox="0 0 147 103" fill="none" xmlns="http://www.w3.org/2000/svg">
<path d="M93.6569 2.63138L92.3291 2.03583L91.6936 3.34498L56.3319 76.1909L12.9455 49.439L45.6342 29.2517L47.0167 28.3979L46.0554 27.0879L41.5754 20.9833L40.7512 19.8603L39.5703 20.5993L2.20417 43.9839L1.49992 44.4246L1.49992 45.2554L1.49992 53.7231L1.49992 54.5591L2.21095 54.9988L51.7646 85.6452L47.4856 94.4194L46.8306 95.7624L48.171 96.4226L54.7679 99.6718L56.1217 100.339L56.7803 98.9809L92.9292 24.4629L133.357 49.4355L100.677 69.4783L99.385 70.2708L100.191 71.5546L104.179 77.9054L104.971 79.1664L106.237 78.3839L144.096 54.9993L144.808 54.5596L144.808 53.7231L144.808 45.2554L144.808 44.4224L144.1 43.9821L97.4983 14.9638L101.085 7.66457L101.77 6.27024L100.352 5.63446L93.6569 2.63138Z" fill="white" stroke="white" stroke-width="3"/>
</svg>
