<svg width="170" height="170" viewBox="0 0 170 170" fill="none" xmlns="http://www.w3.org/2000/svg">
<rect width="170" height="170" rx="20" fill="#1D1D1D"/>
<g filter="url(#filter0_d_302_8)">
<path d="M104.735 38L111.431 41.0031L107.246 49.52L155 79.2554L155 87.7231L117.142 111.108L113.154 104.757L147.911 83.44L103.997 56.3139L67.1231 132.326L60.5262 129.077L65.4 119.083L14.6923 87.7231L14.6923 79.2554L52.0585 55.8708L56.5385 61.9754L21.7815 83.44L68.6492 112.338L104.735 38Z" fill="white"/>
<path d="M105.349 36.6314L104.021 36.0358L103.386 37.345L68.0243 110.191L24.6379 83.439L57.3266 63.2517L58.7091 62.3979L57.7478 61.0879L53.2678 54.9833L52.4436 53.8603L51.2627 54.5993L13.8966 77.9839L13.1923 78.4246L13.1923 79.2554L13.1923 87.7231L13.1923 88.5591L13.9033 88.9988L63.457 119.645L59.1779 128.419L58.523 129.762L59.8634 130.423L66.4603 133.672L67.814 134.339L68.4727 132.981L104.622 58.4629L145.049 83.4355L112.37 103.478L111.077 104.271L111.884 105.555L115.871 111.905L116.663 113.166L117.93 112.384L155.788 88.9993L156.5 88.5596L156.5 87.7231L156.5 79.2554L156.5 78.4224L155.793 77.9821L109.191 48.9638L112.777 41.6646L113.462 40.2702L112.045 39.6345L105.349 36.6314Z" stroke="white" stroke-width="3"/>
</g>
<defs>
<filter id="filter0_d_302_8" x="7.69238" y="34.0715" width="154.308" height="110.28" filterUnits="userSpaceOnUse" color-interpolation-filters="sRGB">
<feFlood flood-opacity="0" result="BackgroundImageFix"/>
<feColorMatrix in="SourceAlpha" type="matrix" values="0 0 0 0 0 0 0 0 0 0 0 0 0 0 0 0 0 0 127 0" result="hardAlpha"/>
<feOffset dy="4"/>
<feGaussianBlur stdDeviation="2"/>
<feComposite in2="hardAlpha" operator="out"/>
<feColorMatrix type="matrix" values="0 0 0 0 0 0 0 0 0 0 0 0 0 0 0 0 0 0 0.25 0"/>
<feBlend mode="normal" in2="BackgroundImageFix" result="effect1_dropShadow_302_8"/>
<feBlend mode="normal" in="SourceGraphic" in2="effect1_dropShadow_302_8" result="shape"/>
</filter>
</defs>
</svg>
